<svg id="Layer_1" data-name="Layer 1" xmlns="http://www.w3.org/2000/svg" viewBox="0 0 413.99 413.98"><defs><style>.cls-1{fill:none;stroke:#39a4db;stroke-linecap:round;stroke-linejoin:round;stroke-width:14px;}</style></defs><title>search</title><path class="cls-1" d="M189.28,40.25c-41.43-41.4-109-41.4-150.41,0s-41.44,109,0,150.43,109,41.42,150.41,0,41.43-109,0-150.43" transform="translate(-0.8 -2.2)"/><line class="cls-1" x1="191.58" y1="191.59" x2="241.31" y2="241.3"/><path class="cls-1" d="M397.67,350.19a34.59,34.59,0,0,1,0,48.89" transform="translate(-0.8 -2.2)"/><path class="cls-1" d="M397.67,399.09a34.63,34.63,0,0,1-48.86,0" transform="translate(-0.8 -2.2)"/><line class="cls-1" x1="348.01" y1="396.88" x2="241.31" y2="290.16"/><path class="cls-1" d="M242.11,292.36a34.54,34.54,0,0,1,0-48.85h0" transform="translate(-0.8 -2.2)"/><path class="cls-1" d="M242.11,243.51a34.55,34.55,0,0,1,48.86,0" transform="translate(-0.8 -2.2)"/><line class="cls-1" x1="290.17" y1="241.3" x2="396.87" y2="347.99"/><path class="cls-1" d="M108.47,188.72A72.8,72.8,0,0,0,133.08,46" transform="translate(-0.8 -2.2)"/></svg>